<?xml version="1.0" encoding="iso-8859-1"?>
<!-- Uploaded to: SVG Repo, www.svgrepo.com, Generator: SVG Repo Mixer Tools -->
<svg height="800px" width="800px" version="1.1" id="Layer_1" xmlns="http://www.w3.org/2000/svg" xmlns:xlink="http://www.w3.org/1999/xlink" 
	 viewBox="0 0 392.533 392.533" xml:space="preserve">
<g>
	<path style="fill:#FFFFFF;" d="M112.089,140.347c1.422,13.899,5.495,27.022,11.766,38.853h41.891
		c-2.263-12.541-3.62-25.665-4.073-38.853H112.089z"/>
	<path style="fill:#FFFFFF;" d="M187.725,179.265h62.772c2.263-11.507,3.814-24.566,4.331-38.853h-71.434
		C183.976,154.699,185.527,167.693,187.725,179.265z"/>
	<path style="fill:#FFFFFF;" d="M250.497,79.644h-62.772c-2.263,11.507-3.814,24.566-4.331,38.853h71.37
		C254.246,104.21,252.76,91.281,250.497,79.644z"/>
	<path style="fill:#FFFFFF;" d="M276.614,118.562h49.584c-1.422-13.899-5.495-27.022-11.766-38.853h-41.956
		C274.739,92.186,276.162,105.374,276.614,118.562z"/>
	<path style="fill:#FFFFFF;" d="M165.745,79.644h-41.891c-6.206,11.83-10.279,24.954-11.766,38.853h49.519
		C162.061,105.309,163.483,92.186,165.745,79.644z"/>
	<path style="fill:#FFFFFF;" d="M245.002,201.051H193.22c12.994,38.529,25.665,36.008,25.859,36.008
		C219.337,237.059,234.206,236.541,245.002,201.051z"/>
	<path style="fill:#FFFFFF;" d="M182.166,230.4c-4.59-8.469-8.404-18.489-11.507-29.349h-31.677
		C150.683,214.109,165.422,224.259,182.166,230.4z"/>
	<path style="fill:#FFFFFF;" d="M256.057,28.251c4.655,8.598,8.469,18.618,11.572,29.673h32.129
		C287.992,44.735,272.994,34.457,256.057,28.251z"/>
	<path style="fill:#FFFFFF;" d="M182.166,28.251c-16.937,6.206-31.935,16.485-43.636,29.673h32.065
		C173.697,46.869,177.576,36.848,182.166,28.251z"/>
	<path style="fill:#FFFFFF;" d="M256.121,230.4c16.743-6.206,31.547-16.356,43.184-29.414h-31.677
		C264.525,211.976,260.711,221.996,256.121,230.4z"/>
	<path style="fill:#FFFFFF;" d="M193.22,57.923h51.782c-7.434-23.014-17.713-36.267-25.859-36.267
		C210.998,21.657,200.655,34.909,193.22,57.923z"/>
	<path style="fill:#FFFFFF;" d="M326.198,140.347h-49.584c-0.453,13.188-1.875,26.376-4.073,38.853h41.956
		C320.638,167.37,324.84,154.311,326.198,140.347z"/>
</g>
<path style="fill:#56ACE0;" d="M127.863,370.747h166.141c-11.636-13.382-43.442-25.277-83.071-25.277
	C171.305,345.471,139.499,357.301,127.863,370.747z"/>
<path style="fill:#194F82;" d="M327.62,237.899c-68.073,63.547-161.164,55.79-216.889,0c-59.798-59.798-59.798-157.091,0-216.889
	c4.267-4.267,4.267-11.119,0-15.451c-4.267-4.267-11.184-4.267-15.451,0c-68.331,68.331-68.331,179.394,0,247.725
	c26.958,28.574,64.776,45.64,104.792,49.584v20.945c-57.018,2.78-98.78,26.634-98.78,57.794c0,6.012,4.848,10.925,10.925,10.925
	h197.56c6.012,0,10.925-4.848,10.925-10.925c0-31.095-41.697-55.014-98.78-57.729v-20.105c43.378-0.84,87.337-17.002,121.212-50.489
	c4.267-4.267,4.267-11.119,0-15.451C338.804,233.697,331.887,233.697,327.62,237.899z M294.004,370.747H127.863
	c11.636-13.382,43.442-25.277,83.071-25.277C250.562,345.471,282.303,357.301,294.004,370.747z"/>
<circle style="fill:#FFC10D;" cx="219.079" cy="129.422" r="85.915"/>
<path style="fill:#194F82;" d="M89.592,129.422c0,0.323,0.065,0.517,0.065,0.84c0.453,71.111,58.182,128.582,129.422,128.582
	c71.499,0,129.422-57.923,129.422-129.422S290.642,0,219.143,0C147.968,0,90.174,57.471,89.721,128.582
	C89.657,128.905,89.592,129.164,89.592,129.422z M123.855,79.644h41.891c-2.263,12.541-3.62,25.665-4.073,38.853h-49.519
	C113.511,104.598,117.649,91.475,123.855,79.644z M326.198,118.562h-49.584c-0.453-13.188-1.875-26.376-4.073-38.853h41.956
	C320.638,91.475,324.84,104.598,326.198,118.562z M170.659,201.051c3.103,10.99,6.982,20.945,11.507,29.349
	c-16.679-6.206-31.547-16.356-43.184-29.349H170.659z M123.855,179.265c-6.206-11.83-10.279-24.954-11.766-38.853h49.519
	c0.453,13.188,1.875,26.376,4.073,38.853H123.855z M254.828,140.347c-0.517,14.352-2.069,27.345-4.331,38.853h-62.772
	c-2.263-11.507-3.814-24.566-4.331-38.853H254.828z M183.394,118.562c0.517-14.352,2.069-27.345,4.331-38.853h62.772
	c2.263,11.507,3.814,24.566,4.331,38.853H183.394z M193.22,201.051h51.782c-10.796,35.491-25.665,36.008-25.794,36.008
	C218.95,237.059,206.214,239.515,193.22,201.051z M256.121,230.4c4.59-8.469,8.404-18.489,11.507-29.414h31.677
	C287.669,214.109,272.8,224.323,256.121,230.4z M272.541,179.265c2.263-12.541,3.62-25.665,4.073-38.853h49.584
	c-1.422,13.899-5.495,27.022-11.766,38.853H272.541z M267.628,57.923c-3.103-11.055-6.982-21.204-11.572-29.673
	c17.002,6.206,32,16.485,43.766,29.673H267.628z M245.002,57.923H193.22c7.434-23.014,17.713-36.267,25.859-36.267
	S237.568,34.909,245.002,57.923z M182.166,28.251c-4.655,8.598-8.469,18.618-11.572,29.673h-32.065
	C150.295,44.735,165.228,34.457,182.166,28.251z"/>
</svg>